<?xml version="1.0" encoding="UTF-8"?>
<svg xmlns="http://www.w3.org/2000/svg" viewBox="0 0 512 512" width="512" height="512">
  <defs>
    <!-- Brand gradient -->
    <linearGradient id="brand-gradient" x1="0%" y1="0%" x2="100%" y2="100%">
      <stop offset="0%" stop-color="#14b8a6"/>
      <stop offset="100%" stop-color="#0891b2"/>
    </linearGradient>
    <!-- Background gradient -->
    <linearGradient id="bg-gradient" x1="0%" y1="0%" x2="100%" y2="100%">
      <stop offset="0%" stop-color="#1a1f26"/>
      <stop offset="100%" stop-color="#0f1419"/>
    </linearGradient>
    <!-- Shadow filter -->
    <filter id="shadow" x="-20%" y="-20%" width="140%" height="140%">
      <feDropShadow dx="0" dy="8" stdDeviation="12" flood-color="#000" flood-opacity="0.4"/>
    </filter>
  </defs>

  <!-- Background rounded square -->
  <rect x="32" y="32" width="448" height="448" rx="80" ry="80" fill="url(#bg-gradient)" filter="url(#shadow)"/>

  <!-- Capture bracket corners -->
  <path d="M136 96 L96 96 L96 176" stroke="url(#brand-gradient)" stroke-width="16" stroke-linecap="round" stroke-linejoin="round" fill="none"/>
  <path d="M376 96 L416 96 L416 176" stroke="url(#brand-gradient)" stroke-width="16" stroke-linecap="round" stroke-linejoin="round" fill="none"/>
  <path d="M136 416 L96 416 L96 336" stroke="url(#brand-gradient)" stroke-width="16" stroke-linecap="round" stroke-linejoin="round" fill="none"/>
  <path d="M376 416 L416 416 L416 336" stroke="url(#brand-gradient)" stroke-width="16" stroke-linecap="round" stroke-linejoin="round" fill="none"/>

  <!-- Lock icon (encryption indicator) -->
  <!-- Lock body -->
  <rect x="176" y="256" width="160" height="120" rx="16" fill="url(#brand-gradient)"/>
  <!-- Lock shackle -->
  <path d="M208 256 L208 200 Q208 152 256 152 Q304 152 304 200 L304 256"
        stroke="#e7e9ea" stroke-width="24" stroke-linecap="round" fill="none"/>
  <!-- Keyhole -->
  <circle cx="256" cy="304" r="16" fill="#0f1419"/>
  <rect x="248" y="304" width="16" height="32" fill="#0f1419"/>
</svg>
